<svg width="256" height="256" viewBox="158.5 18.1 51.3 68.7"
  xmlns="http://www.w3.org/2000/svg"
  xmlns:xlink="http://www.w3.org/1999/xlink">
  <linearGradient x1="-7708.797" y1="-803.36" x2="-7633.153" y2="-714.907" id="g1" xlink:href="#s1"/>
  <linearGradient x1="-8268.639" y1="-813.123" x2="-7728.958" y2="-813.123" id="g2" xlink:href="#s2"/>
  <linearGradient x1="-8203.492" y1="-758.994" x2="-7881.895" y2="-758.994" id="g3" xlink:href="#s3"/>
  <linearGradient x1="-8238.328" y1="-818.152" x2="-7698.647" y2="-818.152" id="g4" xlink:href="#s4"/>
  <linearGradient x1="-8198.968" y1="-810.851" x2="-7915.35" y2="-810.851" id="g5" xlink:href="#s5"/>
  <linearGradient x1="-8238.328" y1="-762.297" x2="-7698.647" y2="-762.297" id="g6" xlink:href="#s6"/>
  <linearGradient x1="-8271.806" y1="-765.071" x2="-7732.125" y2="-765.071" id="g7" xlink:href="#s7"/>
  <linearGradient x1="-7708.797" y1="-803.36" x2="-7633.153" y2="-714.907" id="g11" xlink:href="#s1"/>
  <linearGradient x1="-8268.639" y1="-813.123" x2="-7728.958" y2="-813.123" id="g12" xlink:href="#s2"/>
  <linearGradient x1="-8203.492" y1="-758.994" x2="-7881.895" y2="-758.994" id="g13" xlink:href="#s3"/>
  <linearGradient x1="-8238.328" y1="-818.152" x2="-7698.647" y2="-818.152" id="g14" xlink:href="#s4"/>
  <linearGradient x1="-8198.968" y1="-810.851" x2="-7915.35" y2="-810.851" id="g15" xlink:href="#s5"/>
  <linearGradient x1="-8238.328" y1="-762.297" x2="-7698.647" y2="-762.297" id="g16" xlink:href="#s6"/>
  <linearGradient x1="-8271.806" y1="-765.071" x2="-7732.125" y2="-765.071" id="g17" xlink:href="#s7"/>
  <g transform="rotate(-36.275 121.871 -184.413) scale(.1186)">
    <path d="M267.1 19.6c-8.4 5-22.4 19-39 39.3l15.3 28.9c10.7-15.4 21.7-29.2 32.7-41 .8-.9 1.3-1.4 1.3-1.4-.4.5-.9.9-1.3 1.4-3.6 3.9-14.4 16.5-30.7 41.6 15.7-.8 39.8-4 59.5-7.4 5.9-32.8-5.7-47.8-5.7-47.8s-14.8-23.9-32.1-13.6z" fill="url(#g11)" />
    <path d="M198.2 162.4c4.7-8.7 9.4-17.2 14.1-25.5 4.9-8.6 9.9-16.9 15-25 .3-.5.6-1 .9-1.4 5-7.9 10-15.5 15.1-22.8L228 58.9c-1.1 1.4-2.3 2.8-3.5 4.3-4.4 5.5-9 11.4-13.7 17.7-5.3 7.1-10.7 14.6-16.3 22.5-5.1 7.3-10.3 15-15.5 22.9-4.4 6.8-8.8 13.7-13.2 20.8-.2.3-.3.5-.5.8l19.9 39.3c4.4-8.3 8.7-16.6 13-24.8z" fill="url(#g12)" />
    <path d="M107.5 384.1c-2.6 7.2-5.3 14.6-7.9 22.2 0 .1-.1.2-.1.3-.4 1.1-.8 2.1-1.1 3.2-1.8 5.1-3.3 9.7-6.9 20.1 5.9 2.7 10.6 9.7 15 17.7-.5-8.3-3.9-16.1-10.4-22.1 28.9 1.3 53.9-6 66.7-27.2 1.1-1.9 2.2-3.9 3.2-6-5.9 7.4-13.1 10.6-26.8 9.8h-.1.1c20.1-9 30.2-17.7 39.1-32 2.1-3.4 4.2-7.1 6.3-11.2-17.6 18.1-38 23.2-59.5 19.3L109 380c-.5 1.4-1 2.7-1.5 4.1z" fill="url(#g13)" />
    <path d="M115 348c3.5-9 7.1-18.1 10.7-27.3 3.5-8.8 7.1-17.6 10.8-26.5 3.7-8.9 7.5-17.8 11.3-26.7 3.9-9.1 7.9-18.1 12-27.1 4-8.9 8.2-17.8 12.3-26.6 1.5-3.2 3-6.3 4.6-9.5 2.6-5.4 5.3-10.8 8-16.2.1-.3.3-.6.4-.9L165.4 148c-.3.5-.6 1.1-1 1.6-4.6 7.6-9.3 15.3-13.8 23.2-4.6 8-9.1 16.1-13.5 24.4-3.7 7-7.3 14-10.9 21.1-.7 1.4-1.4 2.9-2.1 4.3-4.3 8.9-8.3 17.6-11.8 25.9-4 9.4-7.5 18.4-10.6 26.9-2 5.6-3.9 11-5.6 16.2-1.4 4.4-2.7 8.9-4 13.3-3 10.4-5.5 20.8-7.6 31.2l20 39.5c2.6-7.1 5.4-14.2 8.1-21.5.8-2 1.6-4 2.4-6.1z" fill="url(#g14)" />
    <path d="M84.2 337.5c-2.5 12.6-4.3 25.2-5.2 37.8 0 .4-.1.9-.1 1.3-6.2-10-23-19.8-22.9-19.7 12 17.4 21.1 34.6 22.4 51.5-6.4 1.3-15.2-.6-25.3-4.3 10.6 9.7 18.5 12.4 21.6 13.1-9.7.6-19.8 7.3-30 15 14.9-6.1 27-8.5 35.6-6.5-13.7 38.7-27.4 81.5-41.1 126.9 4.2-1.2 6.7-4.1 8.1-7.9 2.4-8.2 18.7-62.2 44.1-133.1.7-2 1.5-4 2.2-6.1.2-.6.4-1.1.6-1.7 2.7-7.4 5.5-15 8.4-22.8.7-1.8 1.3-3.5 2-5.3v-.1l-20-39.5c-.2.5-.3.9-.4 1.4z" fill="url(#g15)" />
    <path d="M188.4 190.6c-.6 1.2-1.1 2.3-1.7 3.5-1.7 3.6-3.5 7.2-5.2 10.9-1.9 4-3.8 8.1-5.8 12.3-1 2.1-2 4.2-3 6.4-3 6.5-6 13.2-9.1 20.1-3.8 8.5-7.6 17.3-11.5 26.5-3.7 8.7-7.5 17.8-11.3 27.1-3.6 8.9-7.3 18-11 27.5-3.3 8.4-6.6 17.1-10 26-.2.4-.3.9-.5 1.3-3.3 8.8-6.7 17.9-10.1 27.2-.1.2-.2.4-.2.6l16.1-1.8c-.3-.1-.6-.1-1-.2 19.3-2.4 44.9-16.8 61.4-34.6 7.6-8.2 14.5-17.8 20.9-29.1 4.8-8.4 9.2-17.7 13.5-28.1 3.7-9 7.3-18.8 10.7-29.4-4.4 2.3-9.5 4-15.1 5.2l-3 .6c-1 .2-2 .3-3.1.5 18-6.9 29.3-20.2 37.5-36.6-4.7 3.2-12.4 7.4-21.6 9.5-1.2.3-2.5.5-3.8.7-.3 0-.6.1-1 .1 6.2-2.6 11.5-5.5 16.1-9 1-.7 1.9-1.5 2.8-2.3 1.4-1.2 2.7-2.5 4-3.8.8-.9 1.6-1.7 2.4-2.6 1.8-2.1 3.5-4.4 5-6.9.5-.8 1-1.5 1.4-2.3.6-1.2 1.2-2.3 1.7-3.4 2.5-5 4.5-9.5 6.1-13.5.8-2 1.5-3.8 2.1-5.5.2-.7.5-1.3.7-2 .6-1.9 1.2-3.6 1.6-5.1.6-2.2 1-4 1.2-5.3-.6.5-1.3 1-2.1 1.4-5.4 3.2-14.7 6.2-22.2 7.6l14.8-1.6-14.8 1.6c-.1 0-.2 0-.3.1-.7.1-1.5.2-2.3.4.1-.1.3-.1.4-.2l-50.6 5.5c.1.4 0 .6-.1.7z" fill="url(#g16)" />
    <path d="M245.4 88.4c-4.5 6.9-9.4 14.8-14.7 23.6-.3.5-.6.9-.8 1.4-4.6 7.7-9.4 16.1-14.5 25.4-4.4 8-9 16.5-13.8 25.8-4.2 8-8.4 16.5-12.9 25.5l50.6-5.5c14.7-6.8 21.3-12.9 27.7-21.8 1.7-2.4 3.4-5 5.1-7.7 5.2-8.1 10.3-17 14.8-25.9 4.4-8.6 8.3-17.1 11.2-24.7 1.9-4.9 3.4-9.4 4.5-13.4.9-3.5 1.6-6.8 2.2-10-19.6 3.3-43.7 6.5-59.4 7.3z" fill="url(#g17)" />
  </g>
  <g transform="scale(.13415) rotate(8.347 -7.672 8739.98)">
    <linearGradient x1="-7708.797" y1="-803.36" x2="-7633.153" y2="-714.907" id="s1" gradientUnits="userSpaceOnUse" gradientTransform="rotate(-65.001 -3054.253 -6609.844)">
      <stop stop-color="#F69923" offset="0"/>
      <stop stop-color="#F79A23" offset=".312"/>
      <stop stop-color="#E97826" offset=".838"/>
    </linearGradient>
    <path d="M267.1 19.6c-8.4 5-22.4 19-39 39.3l15.3 28.9c10.7-15.4 21.7-29.2 32.7-41 .8-.9 1.3-1.4 1.3-1.4-.4.5-.9.9-1.3 1.4-3.6 3.9-14.4 16.5-30.7 41.6 15.7-.8 39.8-4 59.5-7.4 5.9-32.8-5.7-47.8-5.7-47.8s-14.8-23.9-32.1-13.6z" fill="url(#g1)"/>
    <linearGradient x1="-8268.639" y1="-813.123" x2="-7728.958" y2="-813.123" id="s2" gradientUnits="userSpaceOnUse" gradientTransform="rotate(-65.001 -3054.253 -6609.844)">
      <stop stop-color="#9E2064" offset=".323"/>
      <stop stop-color="#C92037" offset=".63"/>
      <stop stop-color="#CD2335" offset=".751"/>
      <stop stop-color="#E97826" offset="1"/>
    </linearGradient>
    <path d="M198.2 162.4c4.7-8.7 9.4-17.2 14.1-25.5 4.9-8.6 9.9-16.9 15-25 .3-.5.6-1 .9-1.4 5-7.9 10-15.5 15.1-22.8L228 58.9c-1.1 1.4-2.3 2.8-3.5 4.3-4.4 5.5-9 11.4-13.7 17.7-5.3 7.1-10.7 14.6-16.3 22.5-5.1 7.3-10.3 15-15.5 22.9-4.4 6.8-8.8 13.7-13.2 20.8-.2.3-.3.5-.5.8l19.9 39.3c4.4-8.3 8.7-16.6 13-24.8z" fill="url(#g2)"/>
    <linearGradient x1="-8203.492" y1="-758.994" x2="-7881.895" y2="-758.994" id="s3" gradientUnits="userSpaceOnUse" gradientTransform="rotate(-65.001 -3054.253 -6609.844)">
      <stop stop-color="#282662" offset="0"/>
      <stop stop-color="#662E8D" offset=".095"/>
      <stop stop-color="#9F2064" offset=".788"/>
      <stop stop-color="#CD2032" offset=".949"/>
    </linearGradient>
    <path d="M107.5 384.1c-2.6 7.2-5.3 14.6-7.9 22.2 0 .1-.1.2-.1.3-.4 1.1-.8 2.1-1.1 3.2-1.8 5.1-3.3 9.7-6.9 20.1 5.9 2.7 10.6 9.7 15 17.7-.5-8.3-3.9-16.1-10.4-22.1 28.9 1.3 53.9-6 66.7-27.2 1.1-1.9 2.2-3.9 3.2-6-5.9 7.4-13.1 10.6-26.8 9.8h-.1.1c20.1-9 30.2-17.7 39.1-32 2.1-3.4 4.2-7.1 6.3-11.2-17.6 18.1-38 23.2-59.5 19.3L109 380c-.5 1.4-1 2.7-1.5 4.1z" fill="url(#g3)"/>
    <linearGradient x1="-8238.328" y1="-818.152" x2="-7698.647" y2="-818.152" id="s4" gradientUnits="userSpaceOnUse" gradientTransform="rotate(-65.001 -3054.253 -6609.844)">
      <stop stop-color="#9E2064" offset=".323"/>
      <stop stop-color="#C92037" offset=".63"/>
      <stop stop-color="#CD2335" offset=".751"/>
      <stop stop-color="#E97826" offset="1"/>
    </linearGradient>
    <path d="M115 348c3.5-9 7.1-18.1 10.7-27.3 3.5-8.8 7.1-17.6 10.8-26.5 3.7-8.9 7.5-17.8 11.3-26.7 3.9-9.1 7.9-18.1 12-27.1 4-8.9 8.2-17.8 12.3-26.6 1.5-3.2 3-6.3 4.6-9.5 2.6-5.4 5.3-10.8 8-16.2.1-.3.3-.6.4-.9L165.4 148c-.3.5-.6 1.1-1 1.6-4.6 7.6-9.3 15.3-13.8 23.2-4.6 8-9.1 16.1-13.5 24.4-3.7 7-7.3 14-10.9 21.1-.7 1.4-1.4 2.9-2.1 4.3-4.3 8.9-8.3 17.6-11.8 25.9-4 9.4-7.5 18.4-10.6 26.9-2 5.6-3.9 11-5.6 16.2-1.4 4.4-2.7 8.9-4 13.3-3 10.4-5.5 20.8-7.6 31.2l20 39.5c2.6-7.1 5.4-14.2 8.1-21.5.8-2 1.6-4 2.4-6.1z" fill="url(#g4)"/>
    <linearGradient x1="-8198.968" y1="-810.851" x2="-7915.35" y2="-810.851" id="s5" gradientUnits="userSpaceOnUse" gradientTransform="rotate(-65.001 -3054.253 -6609.844)">
      <stop stop-color="#282662" offset="0"/>
      <stop stop-color="#662E8D" offset=".095"/>
      <stop stop-color="#9F2064" offset=".788"/>
      <stop stop-color="#CD2032" offset=".949"/>
    </linearGradient>
    <path d="M84.2 337.5c-2.5 12.6-4.3 25.2-5.2 37.8 0 .4-.1.9-.1 1.3-6.2-10-23-19.8-22.9-19.7 12 17.4 21.1 34.6 22.4 51.5-6.4 1.3-15.2-.6-25.3-4.3 10.6 9.7 18.5 12.4 21.6 13.1-9.7.6-19.8 7.3-30 15 14.9-6.1 27-8.5 35.6-6.5-13.7 38.7-27.4 81.5-41.1 126.9 4.2-1.2 6.7-4.1 8.1-7.9 2.4-8.2 18.7-62.2 44.1-133.1.7-2 1.5-4 2.2-6.1.2-.6.4-1.1.6-1.7 2.7-7.4 5.5-15 8.4-22.8.7-1.8 1.3-3.5 2-5.3v-.1l-20-39.5c-.2.5-.3.9-.4 1.4z" fill="url(#g5)"/>
    <linearGradient x1="-8238.328" y1="-762.297" x2="-7698.647" y2="-762.297" id="s6" gradientUnits="userSpaceOnUse" gradientTransform="rotate(-65.001 -3054.253 -6609.844)">
      <stop stop-color="#9E2064" offset=".323"/>
      <stop stop-color="#C92037" offset=".63"/>
      <stop stop-color="#CD2335" offset=".751"/>
      <stop stop-color="#E97826" offset="1"/>
    </linearGradient>
    <path d="M188.4 190.6c-.6 1.2-1.1 2.3-1.7 3.5-1.7 3.6-3.5 7.2-5.2 10.9-1.9 4-3.8 8.1-5.8 12.3-1 2.1-2 4.2-3 6.4-3 6.5-6 13.2-9.1 20.1-3.8 8.5-7.6 17.3-11.5 26.5-3.7 8.7-7.5 17.8-11.3 27.1-3.6 8.9-7.3 18-11 27.5-3.3 8.4-6.6 17.1-10 26-.2.4-.3.9-.5 1.3-3.3 8.8-6.7 17.9-10.1 27.2-.1.2-.2.4-.2.6l16.1-1.8c-.3-.1-.6-.1-1-.2 19.3-2.4 44.9-16.8 61.4-34.6 7.6-8.2 14.5-17.8 20.9-29.1 4.8-8.4 9.2-17.7 13.5-28.1 3.7-9 7.3-18.8 10.7-29.4-4.4 2.3-9.5 4-15.1 5.2l-3 .6c-1 .2-2 .3-3.1.5 18-6.9 29.3-20.2 37.5-36.6-4.7 3.2-12.4 7.4-21.6 9.5-1.2.3-2.5.5-3.8.7-.3 0-.6.1-1 .1 6.2-2.6 11.5-5.5 16.1-9 1-.7 1.9-1.5 2.8-2.3 1.4-1.2 2.7-2.5 4-3.8.8-.9 1.6-1.7 2.4-2.6 1.8-2.1 3.5-4.4 5-6.9.5-.8 1-1.5 1.4-2.3.6-1.2 1.2-2.3 1.7-3.4 2.5-5 4.5-9.5 6.1-13.5.8-2 1.5-3.8 2.1-5.5.2-.7.5-1.3.7-2 .6-1.9 1.2-3.6 1.6-5.1.6-2.2 1-4 1.2-5.3-.6.5-1.3 1-2.1 1.4-5.4 3.2-14.7 6.2-22.2 7.6l14.8-1.6-14.8 1.6c-.1 0-.2 0-.3.1-.7.1-1.5.2-2.3.4.1-.1.3-.1.4-.2l-50.6 5.5c.1.4 0 .6-.1.7z" fill="url(#g6)"/>
    <linearGradient x1="-8271.806" y1="-765.071" x2="-7732.125" y2="-765.071" id="s7" gradientUnits="userSpaceOnUse" gradientTransform="rotate(-65.001 -3054.253 -6609.844)">
      <stop stop-color="#9E2064" offset=".323"/>
      <stop stop-color="#C92037" offset=".63"/>
      <stop stop-color="#CD2335" offset=".751"/>
      <stop stop-color="#E97826" offset="1"/>
    </linearGradient>
    <path d="M245.4 88.4c-4.5 6.9-9.4 14.8-14.7 23.6-.3.5-.6.9-.8 1.4-4.6 7.7-9.4 16.1-14.5 25.4-4.4 8-9 16.5-13.8 25.8-4.2 8-8.4 16.5-12.9 25.5l50.6-5.5c14.7-6.8 21.3-12.9 27.7-21.8 1.7-2.4 3.4-5 5.1-7.7 5.2-8.1 10.3-17 14.8-25.9 4.4-8.6 8.3-17.1 11.2-24.7 1.9-4.9 3.4-9.4 4.5-13.4.9-3.5 1.6-6.8 2.2-10-19.6 3.3-43.7 6.5-59.4 7.3z" fill="url(#g7)"/>
  </g>
</svg>
