<svg width="256" height="256" viewBox="94 94 302 579"
  xmlns="http://www.w3.org/2000/svg">
  <path fill="#C72C48" d="M319.096 122.504s56.734 91.377 75.696 123.853c.306.529.176 1.228-.28 1.684-.575.57-1.441.637-2.011.062l-97.756-102.239 24.351-23.36z M151.967 455.475c16.593-35.104 38.975-66.865 66.674-94.564a341.398 341.398 0 0133.321-29.253v72.348l-99.995 51.469zm-57.734 66.818l157.729-80.297v183.557l35.544 46.691V423.713l21.589-11.105c9.945-4.996 19.272-11.644 27.569-19.946 41.115-41.11 41.768-107.467 1.824-149.293l-81.484-84.894c-3.249-3.472-4.954-8.017-4.804-12.795a17.934 17.934 0 015.659-12.572c7.214-6.783 18.708-6.327 25.491.881l11.396 11.878 24.351-23.361c-28.771-37.317-63.974-32.632-84.365-13.966-10.053 9.463-15.826 22.278-16.262 36.083-.435 13.826 4.545 26.978 14.013 37.037l.109.119 81.909 85.324c26.937 28.668 26.398 73.758-1.622 101.772a73.454 73.454 0 01-14.23 11.105l-11.142 5.731V269.746c-34.078 17.562-65.155 40.125-92.553 67.529-34.124 34.119-60.916 73.861-79.634 118.117a368.77 368.77 0 00-21.087 66.901"/>
</svg>